<svg xmlns="http://www.w3.org/2000/svg" xmlns:xlink="http://www.w3.org/1999/xlink" width="724.169" height="612.531" viewBox="0 0 724.169 612.531">
  <defs>
    <linearGradient id="linear-gradient" x1="0.448" y1="-0.408" x2="0.682" y2="1.712" gradientUnits="objectBoundingBox">
      <stop offset="0" stop-color="#fff"/>
      <stop offset="1" stop-color="#94b9ff" stop-opacity="0.349"/>
    </linearGradient>
    <linearGradient id="linear-gradient-2" x1="0.448" y1="1.408" x2="0.682" y2="-0.712" xlink:href="#linear-gradient"/>
    <linearGradient id="linear-gradient-3" x1="0.589" y1="11.616" x2="0.121" y2="9.81" gradientUnits="objectBoundingBox">
      <stop offset="0" stop-color="#fff"/>
      <stop offset="1" stop-color="#94b9ff"/>
    </linearGradient>
    <linearGradient id="linear-gradient-4" x1="0.37" y1="29.246" x2="0.767" y2="27.144" xlink:href="#linear-gradient-3"/>
    <clipPath id="clip-path">
      <rect id="Rectangle_232" data-name="Rectangle 232" width="25.78" height="25.805" fill="#fff"/>
    </clipPath>
    <clipPath id="clip-path-2">
      <rect id="Rectangle_83" data-name="Rectangle 83" width="39.882" height="39.882" fill="#fff"/>
    </clipPath>
    <clipPath id="clip-path-3">
      <rect id="Rectangle_81" data-name="Rectangle 81" width="28.824" height="37.858" fill="#fff"/>
    </clipPath>
  </defs>
  <g id="Group_281" data-name="Group 281" transform="translate(-1032.71 -262.474)">
    <g id="LoginIllustration" transform="translate(1032.71 262.474)">
      <path id="Path_97" data-name="Path 97" d="M697.514,141.977H516.848a7.387,7.387,0,0,0-7.387,7.388V260.627a7.387,7.387,0,0,0,7.387,7.388H697.514a7.385,7.385,0,0,0,7.38-7.388V149.358a7.385,7.385,0,0,0-7.38-7.388Z" transform="translate(-134.22 -37.403)" fill="#5a607a"/>
      <path id="Path_98" data-name="Path 98" d="M666.032,214.8a37.218,37.218,0,1,1-37.225-37.225" transform="translate(-155.858 -46.785)" fill="none" stroke="#fff" stroke-miterlimit="10" stroke-width="17.19"/>
      <path id="Path_99" data-name="Path 99" d="M651.55,167.93a37.218,37.218,0,0,1,37.218,37.218" transform="translate(-171.655 -44.243)" fill="none" stroke="#eb1b23" stroke-miterlimit="10" stroke-width="17.19"/>
      <path id="Path_100" data-name="Path 100" d="M532.74,276.7h21.787" transform="translate(-140.354 -72.899)" fill="none" stroke="#fff" stroke-linecap="round" stroke-miterlimit="10" stroke-width="6.73"/>
      <path id="Path_101" data-name="Path 101" d="M532.74,293.26h45.018" transform="translate(-140.354 -77.262)" fill="none" stroke="#fff" stroke-linecap="round" stroke-miterlimit="10" stroke-width="6.73" opacity="0.4"/>
      <path id="Path_102" data-name="Path 102" d="M702.08,276.87h21.787" transform="translate(-184.967 -72.944)" fill="none" stroke="#fff" stroke-linecap="round" stroke-miterlimit="10" stroke-width="6.73"/>
      <path id="Path_103" data-name="Path 103" d="M702.08,293.42H747.1" transform="translate(-184.967 -77.304)" fill="none" stroke="#fff" stroke-linecap="round" stroke-miterlimit="10" stroke-width="6.73" opacity="0.4"/>
      <path id="Path_104" data-name="Path 104" d="M63.845,103.88H326.106a26.254,26.254,0,0,1,26.258,26.258v15.718H37.58V130.138A26.254,26.254,0,0,1,63.838,103.88Z" transform="translate(-9.901 -27.368)" fill="#a8abc6"/>
      <path id="Path_105" data-name="Path 105" d="M37.577,478.632H352.362l.191-317.665-314.776-.033-.207,317.7h0Z" transform="translate(-9.898 -42.385)" fill="url(#linear-gradient)"/>
      <path id="Path_215" data-name="Path 215" d="M37.577,160.88H352.362V457.766A20.872,20.872,0,0,1,331.5,478.632H58.436A20.872,20.872,0,0,1,37.57,457.766V160.88h0Z" transform="translate(337.769 133.898)" fill="url(#linear-gradient-2)"/>
      <path id="Path_106" data-name="Path 106" d="M216.488,437.357A109.148,109.148,0,1,0,107.34,328.208,109.147,109.147,0,0,0,216.488,437.357Z" transform="translate(-28.279 -57.713)" fill="none" stroke="#fff" stroke-miterlimit="10" stroke-width="30" opacity="0.6"/>
      <path id="Path_107" data-name="Path 107" d="M74.745,137.93a6.445,6.445,0,1,0-6.445-6.445A6.447,6.447,0,0,0,74.745,137.93Z" transform="translate(-17.994 -32.943)" fill="#fff"/>
      <path id="Path_108" data-name="Path 108" d="M110.075,137.93a6.445,6.445,0,1,0-6.445-6.445A6.447,6.447,0,0,0,110.075,137.93Z" transform="translate(-27.302 -32.943)" fill="#fff"/>
      <path id="Path_109" data-name="Path 109" d="M143.265,137.93a6.445,6.445,0,1,0-6.445-6.445A6.447,6.447,0,0,0,143.265,137.93Z" transform="translate(-36.046 -32.943)" fill="#fff"/>
      <path id="Path_110" data-name="Path 110" d="M535.735,342.68H798a26.254,26.254,0,0,1,26.258,26.258v15.718H509.47V368.938a26.254,26.254,0,0,1,26.265-26.258Z" transform="translate(-134.223 -90.282)" fill="#a8abc6"/>
      <path id="Path_112" data-name="Path 112" d="M706.318,685.487A109.148,109.148,0,1,0,597.17,576.338,109.151,109.151,0,0,0,706.318,685.487Z" transform="translate(-173.769 -122.519)" fill="none" stroke="#fff" stroke-miterlimit="10" stroke-width="30" opacity="0.6"/>
      <path id="Path_113" data-name="Path 113" d="M546.635,376.729a6.445,6.445,0,1,0-6.445-6.445A6.447,6.447,0,0,0,546.635,376.729Z" transform="translate(-142.316 -95.856)" fill="#fff"/>
      <path id="Path_114" data-name="Path 114" d="M581.965,376.729a6.445,6.445,0,1,0-6.445-6.445A6.447,6.447,0,0,0,581.965,376.729Z" transform="translate(-151.624 -95.856)" fill="#fff"/>
      <path id="Path_115" data-name="Path 115" d="M615.155,376.729a6.445,6.445,0,1,0-6.445-6.445A6.447,6.447,0,0,0,615.155,376.729Z" transform="translate(-160.368 -95.856)" fill="#fff"/>
      <path id="Path_116" data-name="Path 116" d="M674.459,652.68,658.94,784.16H721.3l35.59-130.7Z" transform="translate(-173.602 -171.953)" fill="#1f2d49"/>
      <path id="Path_117" data-name="Path 117" d="M743.636,791.23,736.3,750.867,750.839,706.8H773.37l-29.742,84.43Z" transform="translate(-193.983 -186.211)" fill="#0d1b33"/>
      <path id="Path_118" data-name="Path 118" d="M814.543,653.74a211.918,211.918,0,0,0,0,23.695c1.819,25.506-3.381,97.209-3.337,107.005H755.833c-.236-13.575-3.683-130.14-3.683-130.14Z" transform="translate(-198.158 -172.232)" fill="#1f2d49"/>
      <path id="Path_119" data-name="Path 119" d="M678.4,662.1l116.713,15.048V653.451l-115.527-.781-1.178,9.42Z" transform="translate(-178.729 -171.95)" fill="#0d1b33"/>
      <path id="Path_120" data-name="Path 120" d="M681.349,463.809c3.256-16.079-4.4-15.666-6.953-18.222,0,0-9.56-7.888-16.852-.538-7.711,7.778-51.934,68.189-51.934,68.189l27.672,25.448,5.2-6.209,13.471-16.064,14.407-17.176,1.79-1.952,19.437-22.015s-8.08-2.99-6.239-11.453Z" transform="translate(-159.552 -116.426)" fill="#febb94"/>
      <path id="Path_121" data-name="Path 121" d="M709.33,465.338a21.263,21.263,0,1,0-26.913,13.412A21.262,21.262,0,0,0,709.33,465.338Z" transform="translate(-175.962 -115.215)" fill="#febb94"/>
      <path id="Path_122" data-name="Path 122" d="M679.6,500.565c.56-3.359,1.672-10.083,2.872-16.211l6.386-29.653s-17.147,25.337-25.042,42.992C657.97,510.92,651.187,524.4,650.06,535.8l13.471-16.064,14.407-17.176,1.665-2Z" transform="translate(-171.262 -119.794)" fill="#ff967c"/>
      <path id="Path_123" data-name="Path 123" d="M604.352,410.84c-1.436-13.6,2.261-14.259,2.313-21.632.029-7.2,10.908-20.542,5.716-20.277s-8.831,5.23-8.831,5.23c-.773-6.467.53-17.22-6.084-21.279s-8.176-2.092-13.56-.479c-14.377,4.412-6.349,23.444-6.2,29.469.133,3.793,6.806,17.986,7.108,20.608l2.129,10.1,17.419-1.738Z" transform="translate(-151.576 -92.337)" fill="#ffccb3"/>
      <path id="Path_124" data-name="Path 124" d="M602.906,372.548,600.94,353.03Z" transform="translate(-158.321 -93.008)" fill="#e56441"/>
      <path id="Path_125" data-name="Path 125" d="M602.906,372.548,600.94,353.03" transform="translate(-158.321 -93.008)" fill="none" stroke="#e56441" stroke-linecap="round" stroke-width="1.2"/>
      <path id="Path_126" data-name="Path 126" d="M593.327,373.112l-3.2-18.752Z" transform="translate(-155.473 -93.359)" fill="#e56441"/>
      <path id="Path_127" data-name="Path 127" d="M593.327,373.112l-3.2-18.752" transform="translate(-155.473 -93.359)" fill="none" stroke="#e56441" stroke-linecap="round" stroke-width="1.2"/>
      <path id="Path_128" data-name="Path 128" d="M583.173,375.865,581.56,364.64Z" transform="translate(-153.215 -96.067)" fill="#e56441"/>
      <path id="Path_129" data-name="Path 129" d="M583.173,375.865,581.56,364.64" transform="translate(-153.215 -96.067)" fill="none" stroke="#e56441" stroke-linecap="round" stroke-width="1.2"/>
      <path id="Path_130" data-name="Path 130" d="M598.54,395.906c2.35-5.495,8.448-10.776,8.448-10.776Z" transform="translate(-157.689 -101.465)" fill="#e56441"/>
      <path id="Path_131" data-name="Path 131" d="M598.54,395.906c2.35-5.495,8.448-10.776,8.448-10.776" transform="translate(-157.689 -101.465)" fill="none" stroke="#e56441" stroke-linecap="round" stroke-width="1.2"/>
      <path id="Path_132" data-name="Path 132" d="M632.587,513.023l-23.01-90.831a2.277,2.277,0,0,0-1-1.3,2.315,2.315,0,0,0-1.62-.3L589.6,423.894a3.39,3.39,0,0,0-2.07,1.318,3.431,3.431,0,0,0-.648,2.364l9.56,94.432,36.135-8.986Z" transform="translate(-154.614 -110.797)" fill="#febb94"/>
      <path id="Path_133" data-name="Path 133" d="M618.371,567.082a18.841,18.841,0,1,0-18.841-18.841A18.838,18.838,0,0,0,618.371,567.082Z" transform="translate(-157.95 -139.474)" fill="#febb94"/>
      <path id="Path_134" data-name="Path 134" d="M715.1,426s-21.536,6.356-26.958,8.625S682.365,445.96,682,452.383c-.25,4.5-1.1,72.579-.773,115.387.074,9.141-1.635,14.945-2.725,20.027a20.426,20.426,0,0,0-.486,4.125,3.612,3.612,0,0,0,.265,1.422,3.879,3.879,0,0,0,.788,1.215,3.7,3.7,0,0,0,1.193.818,3.746,3.746,0,0,0,1.414.3l110.268,1.031s4.891.714,3.712-4.869a107.611,107.611,0,0,1-1.915-18.5c-1.1-44.458-1.311-118.908-1.79-122.436-.722-5.288,4.957-9.848-1.2-12.507l-29.734-10.82L715.1,426.007Z" transform="translate(-178.628 -112.233)" fill="#febb94"/>
      <path id="Path_135" data-name="Path 135" d="M798.294,491.584s1.672,61.619,1.318,82.161c-.214,12.8-14.849,18.222-14.893,25.632-.022,4.382,11.829,1.657,17.058-.052,11.763-3.83,19.5,1.37,19.5,1.37L818.144,488.41Z" transform="translate(-206.739 -128.675)" fill="#ff967c"/>
      <path id="Path_136" data-name="Path 136" d="M735.13,394.129l6.577,34.345,2.32,2.46s-.921,1.1,1.724-1.547c6.231-6.246,22.634-13.862,21.956-16.314-.972-3.513-3.793-25.4-3.793-25.4l-28.784,6.467Z" transform="translate(-193.674 -102.135)" fill="#ffccb3"/>
      <path id="Path_137" data-name="Path 137" d="M734.151,399.53h17.323L732.45,429.088l1.709-29.558Z" transform="translate(-192.968 -105.259)" fill="#ff967c"/>
      <path id="Path_138" data-name="Path 138" d="M778.451,362.875c5.06-12.536-10.4-14.127-13.074-14.289s-.884-20.446-.884-20.446-27.318-13.766-35.037-10.481c0,0-11.078,22.929-16.315,38.168s-2.976,23.444,2.526,25.661c7.292,3.683,16.867,4.854,23.717,3.16,12.2-3.012,19.938-12.75,19.938-12.75.206-.029.324-.044.324-.044s14.031,2.872,18.8-8.964Z" transform="translate(-187.102 -83.556)" fill="#ffccb3"/>
      <path id="Path_139" data-name="Path 139" d="M773.752,366.745c9.862-6.887,18.156-14.576,19.725-24.343,3.167-19.68-7.874-24.439-7.874-24.439,7.343-13.943-9.406-21.478-18.045-24.291-28.556-9.3-45.968.788-47.183,11.844a18.621,18.621,0,0,0,2.57,12.521A40.171,40.171,0,0,0,724,328.18l4.721-8.735a8.8,8.8,0,0,0,3.521,2.7c15.512,7.388,31.421-.8,31.421-.8-6.2,7.167-6.246,23.032-5.848,26.346.575,4.78,3.528,1.289,3.528,1.289,2.909-4.7,13.722-8.124,16.55,1.62,2.21,7.594-17.706,15.062-17.706,15.062l2,11.829c3.712.759,3.16-3.167,4.147-1.856s3.079,2.151,3.484-1.863,3.94-7.027,3.94-7.027h-.007Z" transform="translate(-189.746 -76.408)" fill="#bc775c"/>
      <path id="Path_140" data-name="Path 140" d="M761.029,496.765l-70.48,6.106a3.99,3.99,0,0,0-3.624,4.309l7.667,88.562a3.99,3.99,0,0,0,4.309,3.624l70.48-6.106A3.979,3.979,0,0,0,773,588.951l-7.667-88.562a3.99,3.99,0,0,0-4.309-3.624Z" transform="translate(-180.971 -130.873)" fill="#eb1b23"/>
      <path id="Path_141" data-name="Path 141" d="M701.84,518.179,730.9,515.66" transform="translate(-184.904 -135.854)" fill="none" stroke="#fff" stroke-linecap="round" stroke-miterlimit="10" stroke-width="5.05"/>
      <path id="Path_142" data-name="Path 142" d="M703.36,532.889l13.25-1.149" transform="translate(-185.305 -140.091)" fill="none" stroke="#fff" stroke-linecap="round" stroke-miterlimit="10" stroke-width="5.05"/>
      <path id="Path_143" data-name="Path 143" d="M822.135,463.277c-10.849-13.582-15.725-7.078-19.541-6.747,0,0-12.912,2.408-11.9,13.324,1.075,11.556,20.078,88.569,20.078,88.569l39.877-3-1.893-10.621-3.889-21.875-4.147-23.385-.376-2.784-4.662-30.766s-7.933,4.53-13.552-2.725Z" transform="translate(-208.3 -119.79)" fill="#febb94"/>
      <path id="Path_144" data-name="Path 144" d="M824.764,483.263a22.528,22.528,0,1,0-30.986-7.41A22.533,22.533,0,0,0,824.764,483.263Z" transform="translate(-208.248 -116.325)" fill="#febb94"/>
      <path id="Path_145" data-name="Path 145" d="M696.309,599.88l-25.146,1.871-5.944,14.016,2.033,17.309s4.331-1.76,4.773-7.888,20.469-1.775,25.7-8.5" transform="translate(-175.256 -158.043)" fill="#ffccb3"/>
      <path id="Path_146" data-name="Path 146" d="M802.085,569.09l-97.563,18.392a2.418,2.418,0,0,0-1.451.972,2.473,2.473,0,0,0-.427,1.694l2.364,18.568a3.646,3.646,0,0,0,1.26,2.276,3.6,3.6,0,0,0,2.46.84L809.222,607.9l-7.144-38.8Z" transform="translate(-185.112 -149.931)" fill="#febb94"/>
      <path id="Path_147" data-name="Path 147" d="M838.358,607.7a19.96,19.96,0,1,0-19.968-19.96A19.962,19.962,0,0,0,838.358,607.7Z" transform="translate(-215.61 -149.586)" fill="#febb94"/>
      <path id="Path_148" data-name="Path 148" d="M280.738,369.15l33.94,143.317,2.445,21.036h-57.87L220.99,440.948l7.071-69.346,52.685-2.453Z" transform="translate(-58.221 -97.255)" fill="#1f2d49"/>
      <path id="Path_149" data-name="Path 149" d="M253.33,519.531,261.7,448.72l2.769,97.754L253.33,519.531Z" transform="translate(-66.741 -118.219)" fill="#0d1b33"/>
      <path id="Path_150" data-name="Path 150" d="M171.04,368.54s-15.828,26.582-16.035,48.848c-.309,33.41-2.7,115.954-2.7,115.954h69.824L235.09,427.6l-18.708-59.056H171.04Z" transform="translate(-40.127 -97.095)" fill="#1f2d49"/>
      <path id="Path_151" data-name="Path 151" d="M265.943,369.15l-92.156.95-8.956,18.531,102.667-12.9Z" transform="translate(-43.425 -97.255)" fill="#0d1b33"/>
      <path id="Path_152" data-name="Path 152" d="M440.906,147.436l4.905-10.282a15.908,15.908,0,0,1,4.478-6.121c3-2.431,7.469-6.725,8.566-10.275,1.863-5.657,10.6-21.765-1.9-30.014-4.626-3.042-3.484-2.335-10.982-.545s-6.924,9.848-9.553,15.8c0,0-2.151-5.708-6.909-7.483s1.65,14.075-.162,21.021,1.289,8.728-3.859,21.367l15.423,6.533Z" transform="translate(-112.098 -23.358)" fill="#ffccb3"/>
      <path id="Path_153" data-name="Path 153" d="M454.032,91.63l-3.042,15.232Z" transform="translate(-118.816 -24.141)" fill="#e56441"/>
      <path id="Path_154" data-name="Path 154" d="M454.032,91.63l-3.042,15.232" transform="translate(-118.816 -24.141)" fill="none" stroke="#e56441" stroke-linecap="round" stroke-width="1.21"/>
      <path id="Path_155" data-name="Path 155" d="M464.84,92.58l-5.2,16.653Z" transform="translate(-121.095 -24.391)" fill="#e56441"/>
      <path id="Path_156" data-name="Path 156" d="M464.84,92.58l-5.2,16.653" transform="translate(-121.095 -24.391)" fill="none" stroke="#e56441" stroke-linecap="round" stroke-width="1.21"/>
      <path id="Path_157" data-name="Path 157" d="M474.721,104.26,470,114.564Z" transform="translate(-123.824 -27.468)" fill="#e56441"/>
      <path id="Path_158" data-name="Path 158" d="M474.721,104.26,470,114.564" transform="translate(-123.824 -27.468)" fill="none" stroke="#e56441" stroke-linecap="round" stroke-width="1.21"/>
      <path id="Path_159" data-name="Path 159" d="M443.41,116s4.228,6.843,5.082,12.786Z" transform="translate(-116.819 -30.561)" fill="#e56441"/>
      <path id="Path_160" data-name="Path 160" d="M443.41,116s4.228,6.843,5.082,12.786" transform="translate(-116.819 -30.561)" fill="none" stroke="#e56441" stroke-linecap="round" stroke-width="1.21"/>
      <path id="Path_161" data-name="Path 161" d="M267.2,177.111c7.446-1.628,18.649-2.548,23.923.847l52.442,36.253,40.937-66.9,18.325,10.135L365.16,241.654c-5.539,14.355-19.342,14.134-27.782,9.244l-27.363-13.376-42.808-60.411Z" transform="translate(-70.395 -38.81)" fill="#5661ae"/>
      <path id="Path_162" data-name="Path 162" d="M309.719,234.85s-.1-4.316,10.069,12.308l26.8,26.663L319.22,260.445c-25.02-10.054-17.191-21.618-9.5-25.6Z" transform="translate(-79.615 -61.74)" fill="#465393"/>
      <path id="Path_163" data-name="Path 163" d="M242.069,171.275s18.576,7.351,21.411,9.619,5.531,20.785,10.348,29.58,11.873,25.02,1.576,39.928-9.207,26.744-9.207,26.744l2.195,37.394-88.79,1.635a5.516,5.516,0,0,1-2.283-.42,5.529,5.529,0,0,1-3.108-3.307,5.44,5.44,0,0,1-.28-2.305c.987-10.9,5.495-26.214,5.848-43.574.479-23.525.84-102.144.84-102.144L219.3,163.21c7.793,1.341,22.781,8.05,22.781,8.05Z" transform="translate(-45.817 -42.999)" fill="#5661ae"/>
      <path id="Path_164" data-name="Path 164" d="M301.019,282.8a167.208,167.208,0,0,1-22.163,3.13c-10.054.523-4.832,8.352,4.4,9.317s11.019,1.62,11.019,1.62a64.635,64.635,0,0,1,6.739-14.061Z" transform="translate(-72.027 -74.506)" fill="#465393"/>
      <path id="Path_165" data-name="Path 165" d="M178.778,321.617,175.67,339.64s2.048,5.377,11.615,8.676,18.141,2.305,23.746-3.963,25.146-35.214,25.146-35.214l-57.4,12.47Z" transform="translate(-46.281 -81.445)" fill="#465393"/>
      <path id="Path_166" data-name="Path 166" d="M198.8,208.51s12.941,11.8,13.7,20.55,2.519,33.159,19.15,35.6c20.38,2.983,25.72,5.892,16.27,8.176s-30.9-1.414-30.9,8.375c0,6.968-8.33,12.182-12.521,8.374s-37.534-61.656-5.708-81.064Z" transform="translate(-48.785 -54.934)" fill="#465393"/>
      <path id="Path_167" data-name="Path 167" d="M316.908,185.51l-10.1,21.824,18.274,7.815L336,190.371Z" transform="translate(-80.831 -48.874)" fill="#96bafd"/>
      <path id="Path_168" data-name="Path 168" d="M316.03,200.23l18.531,3.248-2.335,4.375-16.2-5.649V200.23Z" transform="translate(-83.26 -52.752)" fill="#96bafd"/>
      <path id="Path_169" data-name="Path 169" d="M324.937,153.069h0a9.408,9.408,0,0,0-12.138,5.443l-1.65,4.338a9.408,9.408,0,0,0,5.443,12.138h0a9.408,9.408,0,0,0,12.138-5.443l1.65-4.338A9.408,9.408,0,0,0,324.937,153.069Z" transform="translate(-81.811 -40.165)" fill="#eb1b23"/>
      <path id="Path_170" data-name="Path 170" d="M355.5,156.63c25.779,10.673,51.993,1.643,51.993,1.643l-25.4,66.5S365.2,197.6,343.1,189.2c-8.146-3.093,12.4-32.57,12.4-32.57Z" transform="translate(-89.888 -41.266)" fill="#96bafd"/>
      <path id="Path_171" data-name="Path 171" d="M417.975,195.576c7.063-18.546,9.266-34.927,4.92-36.584s-13.6,12.042-20.653,30.589-9.266,34.927-4.92,36.584S410.919,214.122,417.975,195.576Z" transform="translate(-104.09 -41.852)" fill="#fff"/>
      <path id="Path_172" data-name="Path 172" d="M418.582,195.744c7.063-18.546,9.774-34.735,6.054-36.15s-12.462,12.47-19.518,31.023-9.774,34.735-6.054,36.15S411.526,214.3,418.582,195.744Z" transform="translate(-104.696 -42.021)" fill="#eb1b23"/>
      <path id="Path_173" data-name="Path 173" d="M335.022,149.15l17.795,6.776-12.4,32.57-17.795-6.776a9.052,9.052,0,0,1-2.946-1.849,8.882,8.882,0,0,1-2.791-6.224,8.761,8.761,0,0,1,.582-3.425l6.062-15.917a8.936,8.936,0,0,1,4.684-4.964,8.905,8.905,0,0,1,6.813-.192Z" transform="translate(-83.485 -39.141)" fill="url(#linear-gradient-3)"/>
      <path id="Path_174" data-name="Path 174" d="M343.838,160.061l-8.986-3.425A1.478,1.478,0,0,0,333.8,159.4l8.986,3.425a1.478,1.478,0,0,0,1.053-2.762Z" transform="translate(-87.69 -41.242)" fill="#fff"/>
      <path id="Path_175" data-name="Path 175" d="M339.788,168.42l-8.986-3.425a1.478,1.478,0,0,0-1.053,2.762l8.986,3.425a1.478,1.478,0,0,0,1.053-2.762Z" transform="translate(-86.623 -43.443)" fill="#fff"/>
      <path id="Path_176" data-name="Path 176" d="M410.712,190.407l1.1.457a6.94,6.94,0,0,1,.044,12.8,6.852,6.852,0,0,1-2.784.545,6.965,6.965,0,0,1-2.777-.619l-.663-.3a60.732,60.732,0,0,1,5.082-12.89Z" transform="translate(-106.866 -50.163)" fill="url(#linear-gradient-4)"/>
      <path id="Path_177" data-name="Path 177" d="M288.45,225.267l8.529-9.619s-.773-8.529,0-11.792.773-4.655,2.946-6.356a85.7,85.7,0,0,1,8.839-5.119v7.756l20.108,5.509s2.939,4.67-1.576,7.218a5.588,5.588,0,0,1-.582,6.953s1.591,4.338-2.357,5.163c0,0,.7,3.256-3.58,4.625,0,0-1.267,2.136-6.371,2.769-1.407.177-5.635.56-5.635.56l-8.065,8L288.45,225.267Z" transform="translate(-75.994 -50.684)" fill="#ffccb3"/>
      <path id="Path_178" data-name="Path 178" d="M291.3,233.417l14.9,13.331,1.679-1.665L292.3,232.29l-1,1.134Z" transform="translate(-76.745 -61.199)" fill="#fcba9f"/>
      <path id="Path_179" data-name="Path 179" d="M338.305,219.794a37.4,37.4,0,0,1-6.555-1.164Z" transform="translate(-87.402 -57.6)" fill="#e56441"/>
      <path id="Path_180" data-name="Path 180" d="M338.305,219.794a37.4,37.4,0,0,1-6.555-1.164" transform="translate(-87.402 -57.6)" fill="none" stroke="#e56441" stroke-linecap="round" stroke-width="1.21"/>
      <path id="Path_181" data-name="Path 181" d="M337.175,229.034a37.4,37.4,0,0,1-6.555-1.164Z" transform="translate(-87.104 -60.034)" fill="#e56441"/>
      <path id="Path_182" data-name="Path 182" d="M337.175,229.034a37.4,37.4,0,0,1-6.555-1.164" transform="translate(-87.104 -60.034)" fill="none" stroke="#e56441" stroke-linecap="round" stroke-width="1.21"/>
      <path id="Path_183" data-name="Path 183" d="M334.805,236.064a37.4,37.4,0,0,1-6.555-1.164Z" transform="translate(-86.479 -61.886)" fill="#e56441"/>
      <path id="Path_184" data-name="Path 184" d="M334.805,236.064a37.4,37.4,0,0,1-6.555-1.164" transform="translate(-86.479 -61.886)" fill="none" stroke="#e56441" stroke-linecap="round" stroke-width="1.21"/>
      <path id="Path_185" data-name="Path 185" d="M329.405,242.474a37.4,37.4,0,0,1-6.555-1.164Z" transform="translate(-85.057 -63.575)" fill="#e56441"/>
      <path id="Path_186" data-name="Path 186" d="M329.405,242.474a37.4,37.4,0,0,1-6.555-1.164" transform="translate(-85.057 -63.575)" fill="none" stroke="#e56441" stroke-linecap="round" stroke-width="1.21"/>
      <path id="Path_187" data-name="Path 187" d="M196.685,183.111s-3.874-21.8-21.323-18.568c-11.7,2.173-16.278,8.7-14.584,26.088,1.178,12.16,9.995,66.4,13.162,88.555,3.256,22.737,23.488,26.751,37.151,15.445l63.38-63.365-19.5-17.449-49.01,40.311L196.685,183.1Z" transform="translate(-42.268 -43.264)" fill="#5661ae"/>
      <path id="Path_188" data-name="Path 188" d="M268.963,179.7l-17.692-7.712c-3.174,15.674-1.819,12.367-4,13.545,0,0-18.664.714-23.481-22.067l-20.491.678s-5.745,15.674,18.679,23.282c-3.845,9.185,9.671,24.9,26.928,7.2,11.954,17.824,20,1.2,14.223-5.252,8.632-5.023,5.841-9.671,5.841-9.671Z" transform="translate(-53.406 -43.068)" fill="#fff" fill-rule="evenodd"/>
      <path id="Path_189" data-name="Path 189" d="M258.711,140.9l-1.046,29.233s1.429,6.4-5.141,5.693-15.416-5.885-20.388-11.564-4.633-6.135-2.5-9.862,12.138-32.143,12.138-32.143L258.7,140.917Z" transform="translate(-60.11 -32.211)" fill="#ffccb3"/>
      <path id="Path_190" data-name="Path 190" d="M265.109,148.132,253,140.42s5.369,23.555,11.218,34.492Z" transform="translate(-66.654 -36.995)" fill="#fcba9f"/>
      <path id="Path_191" data-name="Path 191" d="M232.852,31.465a30.574,30.574,0,0,0-3.535-16.175c-4.382-7.918-13.479-18.87-27.3-14.149S178.1,16.477,183.32,31.465s19.732,19.791,27.127,18.193,22.406-18.193,22.406-18.193Z" transform="translate(-47.928 -0.001)" fill="#493212"/>
      <path id="Path_192" data-name="Path 192" d="M247.072,44.224a7.59,7.59,0,0,0-3.41-3.042,7.509,7.509,0,0,0-4.537-.523c-5.465,1.009-11.218,5.325-16.116,10.5S218.274,60.1,220.5,62.395s26.575-18.163,26.575-18.163Z" transform="translate(-57.7 -10.675)" fill="#eb1b23"/>
      <path id="Path_193" data-name="Path 193" d="M291.537,84.991s-2.917,28.165-16.616,40.989c-8.934,8.367-17.132,6.224-29.351-10.518-11.2-15.35-12.19-22.811-12.19-22.811l11.844-26.641s47.706-6.791,46.314,18.981Z" transform="translate(-61.485 -17.178)" fill="#ffccb3"/>
      <path id="Path_194" data-name="Path 194" d="M281.312,73.88s-6.739,10.731-19.091,10.908a19.45,19.45,0,0,1-18.782,3.307s4.927-7.469,0-10.091c-8.36-4.449-11.247,10.378-6.784,15.541,3.027,3.506,3.2,9.87.943,13.523s-5.524,10.422-5.524,10.422a134.978,134.978,0,0,1-10.024-9.045c-12.05-12.808-14.024-43,5.885-57.414s40.871-2.88,44.8,0c0,0,20.925,3.653,20.962,25.411.029,18.605-13.206,23.024-13.206,23.024l3.948-15.018s-2.445.265-3.123-10.577Z" transform="translate(-56.106 -11.576)" fill="#493212"/>
      <path id="Path_195" data-name="Path 195" d="M341.625,621.98H46.993a9.411,9.411,0,0,0-9.413,9.413V723.4a9.418,9.418,0,0,0,9.413,9.42H341.625a9.413,9.413,0,0,0,9.413-9.42V631.393A9.411,9.411,0,0,0,341.625,621.98Z" transform="translate(-9.901 -163.865)" fill="#5a607a"/>
      <path id="Path_196" data-name="Path 196" d="M44.981,387.34h-40A4.982,4.982,0,0,0,0,392.319V427.57a4.982,4.982,0,0,0,4.979,4.979h40a4.982,4.982,0,0,0,4.979-4.979V392.319a4.982,4.982,0,0,0-4.979-4.979Z" transform="translate(0 -102.048)" fill="#eb1b23"/>
      <path id="Path_201" data-name="Path 201" d="M224.63,663.24h48.214" transform="translate(-59.18 -174.735)" fill="none" stroke="#fff" stroke-linecap="round" stroke-miterlimit="10" stroke-width="14.89"/>
      <path id="Path_202" data-name="Path 202" d="M224.63,736.54h89.35" transform="translate(-59.18 -194.046)" fill="none" stroke="#fff" stroke-linecap="round" stroke-miterlimit="10" stroke-width="14.89"/>
      <path id="Path_203" data-name="Path 203" d="M224.63,699.89H339.008" transform="translate(-59.18 -184.391)" fill="none" stroke="#fff" stroke-linecap="round" stroke-miterlimit="10" stroke-width="14.89" opacity="0.4"/>
      <path id="Path_204" data-name="Path 204" d="M956.972,489.42H902.637a5.378,5.378,0,0,0-5.377,5.377v49.577a5.378,5.378,0,0,0,5.377,5.377h54.335a5.38,5.38,0,0,0,5.384-5.377V494.8A5.38,5.38,0,0,0,956.972,489.42Z" transform="translate(-238.186 -142.84)" fill="#eb1b23"/>
      <path id="Path_208" data-name="Path 208" d="M265.42,205.77s1.2,16.16,0,28.968" transform="translate(-69.926 -54.212)" fill="none" stroke="#96bafd" stroke-miterlimit="10" stroke-width="1"/>
      <path id="Path_209" data-name="Path 209" d="M744.271,425.374c16.337-10.231,19.047-16.594,19.047-16.594l6.879,13.331L751.114,436.5a37.814,37.814,0,0,0-2.8-5.826l-5.369,4.279,1.326-9.568Zm-19.762-3.351,7.049-5.274s-.552,4.883,6.739,8.212l.6,9.074-3.535-3.425-4.7,6.209-6.158-14.79Z" transform="translate(-190.877 -107.696)" fill="#eb1b23" fill-rule="evenodd"/>
      <path id="Path_210" data-name="Path 210" d="M749.55,440.878l1.326-9.568,4.044,5.288Z" transform="translate(-197.473 -113.632)" fill="#bd1920"/>
      <path id="Path_211" data-name="Path 211" d="M742.184,430.74l-2.924,5.649,3.535,3.425-.6-9.074Z" transform="translate(-194.763 -113.482)" fill="#bd1920"/>
      <path id="Path_212" data-name="Path 212" d="M744.05,443.057l2.224,27.5a1.715,1.715,0,0,0,.457,1.031,1.75,1.75,0,0,0,.994.523,1.731,1.731,0,0,0,.751-.059,1.77,1.77,0,0,0,.655-.376,1.728,1.728,0,0,0,.427-.619,1.7,1.7,0,0,0,.118-.744l-1.584-26.346-1.724,1.547-2.32-2.46Z" transform="translate(-196.024 -116.725)" fill="#eb1b23"/>
      <path id="Path_213" data-name="Path 213" d="M756.579,457.807a2.129,2.129,0,1,0-2.129-2.129A2.13,2.13,0,0,0,756.579,457.807Z" transform="translate(-198.764 -119.491)" fill="#eb1b23"/>
      <path id="Path_214" data-name="Path 214" d="M757.519,474.807a2.129,2.129,0,1,0-2.129-2.129A2.125,2.125,0,0,0,757.519,474.807Z" transform="translate(-199.012 -123.97)" fill="#eb1b23"/>
      <g id="Group_282" data-name="Group 282" transform="translate(11.614 295.163)">
        <g id="Group_249" data-name="Group 249" transform="translate(0 0)" clip-path="url(#clip-path)">
          <path id="Path_92" data-name="Path 92" d="M24.169,12.9a1.612,1.612,0,0,0-1.612,1.612V22.58H3.222V3.226h8.056a1.613,1.613,0,0,0,0-3.226H1.612A1.613,1.613,0,0,0,0,1.615V24.193a1.611,1.611,0,0,0,1.612,1.612H24.169a1.611,1.611,0,0,0,1.611-1.612V14.515A1.611,1.611,0,0,0,24.169,12.9M6.445,14.515v1.613a3.226,3.226,0,0,0,3.223,3.226h1.611a3.222,3.222,0,0,0,2.278-.945L24.836,7.12a3.228,3.228,0,0,0,0-4.562L23.225.947a3.216,3.216,0,0,0-4.558,0L7.388,12.236a3.223,3.223,0,0,0-.944,2.279m3.223,0L20.946,3.226l1.61,1.612L11.279,16.128H9.667Z" transform="translate(0 0)" fill="#fff" fill-rule="evenodd"/>
        </g>
      </g>
      <g id="Group_70" data-name="Group 70" transform="translate(671.953 357.348)">
        <g id="Group_69" data-name="Group 69" transform="translate(0 0)" clip-path="url(#clip-path-2)">
          <path id="Path_43" data-name="Path 43" d="M19.94,0A19.941,19.941,0,1,0,39.882,19.942,19.964,19.964,0,0,0,19.94,0M17.447,5.209v12.24H5.209A14.942,14.942,0,0,1,17.447,5.209M19.94,34.9A14.948,14.948,0,0,1,5.209,22.435H18.4l5.906,11.81a14.953,14.953,0,0,1-4.365.653M28.756,32,22.432,19.352V5.209A14.931,14.931,0,0,1,28.756,32" transform="translate(0 0)" fill="#fff" fill-rule="evenodd"/>
        </g>
      </g>
      <path id="Path_46" data-name="Path 46" d="M393.712,0H339.937a8.723,8.723,0,0,0-8.96,8.465V50.813a8.727,8.727,0,0,0,8.96,8.469,8.459,8.459,0,0,0,5.154,7.672,9.433,9.433,0,0,0,3.807.8,9.3,9.3,0,0,0,5.729-1.961l8.29-6.513h30.795a8.722,8.722,0,0,0,8.962-8.469V8.465A8.718,8.718,0,0,0,393.712,0m0,50.813H359.678L348.9,59.281V50.813h-8.962V8.465h53.775ZM359.176,41.1a4.659,4.659,0,0,0,6.336,0l17.927-16.943a4.071,4.071,0,0,0,0-5.985,4.671,4.671,0,0,0-6.338,0l-14.76,13.944-5.794-5.472a4.659,4.659,0,0,0-6.333,0,4.068,4.068,0,0,0,0,5.988Z" transform="translate(-277.17 481.508)" fill="#fff" fill-rule="evenodd"/>
    </g>
    <path id="Path_216" data-name="Path 216" d="M949.79,489.42h-47.8a4.731,4.731,0,0,0-4.73,4.73v43.614a4.731,4.731,0,0,0,4.73,4.73h47.8a4.733,4.733,0,0,0,4.737-4.73V494.15A4.733,4.733,0,0,0,949.79,489.42Z" transform="translate(682.364 -147.76)" fill="#aaaebf"/>
    <g id="Group_66" data-name="Group 66" transform="translate(1594.405 349.051)">
      <g id="Group_66-2" data-name="Group 66" transform="translate(0 0)" clip-path="url(#clip-path-3)">
        <path id="Path_40" data-name="Path 40" d="M24.707,2.367H22.093A4.053,4.053,0,0,0,18.53,0H10.294A4.056,4.056,0,0,0,6.731,2.367H4.117C1.853,2.367,0,4.494,0,7.1V33.127c0,2.6,1.853,4.732,4.117,4.732h20.59c2.264,0,4.117-2.131,4.117-4.732V7.1c0-2.6-1.853-4.731-4.117-4.731M10.294,4.734H18.53V7.1H10.294ZM24.707,33.127H4.117V7.1H6.177c0,2.6,1.853,4.734,4.118,4.734H18.53c2.263,0,4.117-2.131,4.117-4.734h2.059ZM18.53,16.564H10.294A2.228,2.228,0,0,0,8.236,18.93,2.231,2.231,0,0,0,10.294,21.3H18.53a2.23,2.23,0,0,0,2.058-2.367,2.228,2.228,0,0,0-2.058-2.366m-4.118,7.1H10.294a2.23,2.23,0,0,0-2.058,2.367,2.23,2.23,0,0,0,2.058,2.366h4.118a2.23,2.23,0,0,0,2.058-2.366,2.229,2.229,0,0,0-2.058-2.367" transform="translate(0 0)" fill="#fff" fill-rule="evenodd"/>
      </g>
    </g>
  </g>
</svg>
