<svg xmlns="http://www.w3.org/2000/svg" width="65.079" height="61.5" viewBox="0 0 65.079 61.5">
  <path id="Path_45" data-name="Path 45" d="M56.941,0H8.135A7.922,7.922,0,0,0,0,7.684V53.808A7.622,7.622,0,0,0,4.091,60.48a8.533,8.533,0,0,0,8.166-.04L24.2,53.808H56.941a7.925,7.925,0,0,0,8.137-7.687V7.684A7.925,7.925,0,0,0,56.941,0m0,46.121H21.987L8.135,53.808V7.684H56.941ZM32.535,42.28a3.849,3.849,0,1,0-4.062-3.842,3.96,3.96,0,0,0,4.062,3.842m0-11.534a3.962,3.962,0,0,0,4.07-3.842V15.373a4.073,4.073,0,0,0-8.133,0V26.9a3.961,3.961,0,0,0,4.062,3.842" fill="#edeef2" fill-rule="evenodd"/>
</svg>
