<svg xmlns="http://www.w3.org/2000/svg" width="66.271" height="62.628" viewBox="0 0 66.271 62.628">
  <path id="Path_46" data-name="Path 46" d="M388.965,0H339.259a8.063,8.063,0,0,0-8.282,7.825V46.968a8.067,8.067,0,0,0,8.282,7.828,7.819,7.819,0,0,0,4.764,7.091,8.719,8.719,0,0,0,3.519.742,8.6,8.6,0,0,0,5.3-1.813L360.5,54.8h28.464a8.062,8.062,0,0,0,8.283-7.828V7.825A8.058,8.058,0,0,0,388.965,0m0,46.968H357.506L347.542,54.8V46.968h-8.283V7.825h49.706Zm-31.922-8.974a4.306,4.306,0,0,0,5.857,0l16.57-15.661a3.763,3.763,0,0,0,0-5.532,4.318,4.318,0,0,0-5.858,0L359.968,29.69l-5.356-5.058a4.306,4.306,0,0,0-5.854,0,3.76,3.76,0,0,0,0,5.535Z" transform="translate(-330.977)" fill="#edeef2" fill-rule="evenodd"/>
</svg>
